<mxfile host="65bd71144e" scale="2" border="0">
    <diagram id="ODli3rT7r5hQ75f8tNsw" name="Page-1">
        <mxGraphModel dx="660" dy="371" grid="1" gridSize="10" guides="1" tooltips="1" connect="1" arrows="1" fold="1" page="1" pageScale="1" pageWidth="827" pageHeight="1169" math="1" shadow="0">
            <root>
                <mxCell id="0"/>
                <mxCell id="1" parent="0"/>
                <mxCell id="8" value="" style="group;rotation=-15;" vertex="1" connectable="0" parent="1">
                    <mxGeometry x="120" y="80" width="80" height="40" as="geometry"/>
                </mxCell>
                <mxCell id="2" value="" style="rounded=0;whiteSpace=wrap;html=1;fillColor=none;rotation=-15;" vertex="1" parent="8">
                    <mxGeometry width="80" height="40" as="geometry"/>
                </mxCell>
                <mxCell id="5" value="" style="endArrow=block;html=1;entryX=0.75;entryY=0.5;entryDx=0;entryDy=0;entryPerimeter=0;endFill=1;strokeWidth=2;" edge="1" parent="8" target="2">
                    <mxGeometry width="50" height="50" relative="1" as="geometry">
                        <mxPoint x="21" y="25" as="sourcePoint"/>
                        <mxPoint x="55" y="-37" as="targetPoint"/>
                    </mxGeometry>
                </mxCell>
                <mxCell id="9" value="" style="group;rotation=105;" vertex="1" connectable="0" parent="1">
                    <mxGeometry x="220" y="170" width="80" height="40" as="geometry"/>
                </mxCell>
                <mxCell id="3" value="" style="rounded=0;whiteSpace=wrap;html=1;fillColor=none;rotation=105;" vertex="1" parent="9">
                    <mxGeometry width="80" height="40" as="geometry"/>
                </mxCell>
                <mxCell id="6" value="" style="endArrow=block;html=1;entryX=0.75;entryY=0.5;entryDx=0;entryDy=0;entryPerimeter=0;endFill=1;strokeWidth=2;" edge="1" parent="9">
                    <mxGeometry width="50" height="50" relative="1" as="geometry">
                        <mxPoint x="45" y="1" as="sourcePoint"/>
                        <mxPoint x="35" y="39" as="targetPoint"/>
                    </mxGeometry>
                </mxCell>
                <mxCell id="10" value="" style="group;rotation=5;" vertex="1" connectable="0" parent="1">
                    <mxGeometry x="310" y="280" width="80" height="40" as="geometry"/>
                </mxCell>
                <mxCell id="4" value="" style="rounded=0;whiteSpace=wrap;html=1;fillColor=none;rotation=15;" vertex="1" parent="10">
                    <mxGeometry width="80" height="40" as="geometry"/>
                </mxCell>
                <mxCell id="7" value="" style="endArrow=block;html=1;entryX=0.75;entryY=0.5;entryDx=0;entryDy=0;entryPerimeter=0;endFill=1;strokeWidth=2;" edge="1" parent="10">
                    <mxGeometry width="50" height="50" relative="1" as="geometry">
                        <mxPoint x="21" y="15" as="sourcePoint"/>
                        <mxPoint x="59" y="25" as="targetPoint"/>
                    </mxGeometry>
                </mxCell>
                <mxCell id="18" style="edgeStyle=orthogonalEdgeStyle;curved=1;html=1;exitX=1;exitY=0.5;exitDx=0;exitDy=0;strokeWidth=1;endArrow=classic;endFill=1;entryX=0;entryY=0.5;entryDx=0;entryDy=0;strokeColor=#0000FF;" edge="1" parent="1" source="2" target="3">
                    <mxGeometry relative="1" as="geometry">
                        <mxPoint x="270" y="140.00000000000006" as="targetPoint"/>
                    </mxGeometry>
                </mxCell>
                <mxCell id="22" style="edgeStyle=orthogonalEdgeStyle;curved=1;html=1;exitX=1;exitY=0.5;exitDx=0;exitDy=0;entryX=0;entryY=0.5;entryDx=0;entryDy=0;strokeWidth=1;endArrow=classic;endFill=1;strokeColor=#0000FF;" edge="1" parent="1" source="3" target="4">
                    <mxGeometry relative="1" as="geometry">
                        <Array as="points">
                            <mxPoint x="250" y="290"/>
                            <mxPoint x="311" y="290"/>
                        </Array>
                    </mxGeometry>
                </mxCell>
                <mxCell id="23" value="Goal Config" style="text;html=1;align=center;verticalAlign=middle;resizable=0;points=[];autosize=1;strokeColor=none;fillColor=none;fontFamily=Times New Roman;fontSize=14;" vertex="1" parent="1">
                    <mxGeometry x="310" y="240" width="90" height="30" as="geometry"/>
                </mxCell>
                <mxCell id="24" value="Start Config" style="text;html=1;align=center;verticalAlign=middle;resizable=0;points=[];autosize=1;strokeColor=none;fillColor=none;fontFamily=Times New Roman;fontSize=14;" vertex="1" parent="1">
                    <mxGeometry x="120" y="130" width="90" height="30" as="geometry"/>
                </mxCell>
            </root>
        </mxGraphModel>
    </diagram>
</mxfile>